<?xml version="1.0" encoding="utf-8"?>
<!-- Generator: Adobe Illustrator 27.5.0, SVG Export Plug-In . SVG Version: 6.00 Build 0)  -->
<svg version="1.1" id="_x2018_лой_x5F_1" xmlns="http://www.w3.org/2000/svg" xmlns:xlink="http://www.w3.org/1999/xlink"
	 x="0px" y="0px" viewBox="0 0 3200 2000" style="enable-background:new 0 0 3200 2000;" xml:space="preserve">
<rect style="fill:#FFFFFF;" width="3200" height="2000"/>
<g>
	<path style="fill:#EBF3FA;" d="M3066.314,1603.141c0,0.93-0.014,1.858-0.026,2.787c-0.039,1.963-0.092,3.898-0.157,5.848
		c-0.863,23.955-4.801,47.491-12.756,70.727c-0.353,1.02-0.706,2.04-1.072,3.048c-14.758,41.198-42.336,81.414-88.008,121.291
		c-9.237,8.071-19.232,16.118-29.986,24.15c-2.512,1.884-5.076,3.755-7.68,5.639l-77.437-0.026l-1586.672-0.496l-114.147-0.04
		l-898.162-0.288c0,0-0.628-1.635-1.806-4.788c-6.698-18.067-31.032-86.059-54.215-180.765
		c-23.902-97.638-45.267-252.943-45.934-415.367c-0.013-5.625-0.013-11.264,0.013-16.902
		c0.942-192.423,31.647-392.341,122.049-516.418c1.06-1.465,2.133-2.917,3.219-4.357c1.57-2.08,3.14-4.16,4.71-6.214
		c0.707-0.929,1.413-1.832,2.133-2.748c249.686-322.923,648.542-322.413,841.579-301.899c18.917,2.015,35.847,4.212,50.46,6.319
		c8.805,1.269,16.772,2.499,23.824,3.637c275.838,44.481,400.334-94.197,400.334-94.197
		c194.45-179.13,378.368-222.866,632.843-199.539c31.935,2.904,63.66,7.261,94.98,12.978
		c123.869,22.568,241.692,66.526,342.822,129.102c10.964,6.777,21.718,13.763,32.263,20.985c3.794,2.59,7.562,5.22,11.316,7.875
		c13.41,9.499,26.453,19.35,39.131,29.554c71.903,57.878,131.403,126.982,173.19,205.897
		c32.484,61.345,54.254,128.604,62.811,201.148c1.74,14.653,2.931,29.515,3.559,44.587v0.013
		c0.824,19.742,0.707,39.851-0.432,60.312c-2.264,41.001-8.582,83.403-19.311,127.1c-0.013,0.013-0.013,0.013-0.013,0.026
		c-0.838,3.414-1.636,6.829-2.395,10.217c-13.096,57.84-16,112.539-12.521,164.569
		C2967.696,1308.149,3067.165,1463.024,3066.314,1603.141z"/>
	<g>
		<path style="fill:#DFEBFA;" d="M2701.244,835.294h-63.635V694.506c-0.988-0.56-1.967-1.12-2.945-1.68h-18.973v-0.068h-110.374
			v0.068h-0.093v21.105h0.093v14.514h-0.093v21.097h0.093v14.567h-0.093v21.105h0.093v0.076l-11.693-0.076V674.816h-123.853V688.8
			h-0.061v21.098h0.061v18.547h-0.061v21.097h0.061v14.567h-0.061v21.105h0.061v13.477h-0.061v21.105h0.061v13.477h-0.061v21.105
			h0.061v12.69h-0.061v13.401h0.061v1.461H2230.17v120.781h-52.154v30.42h-56.233v-52.396h-101.159V838.39h-15.821v-14.181h-2.263
			v14.181h-13.121v-0.023h-65.611v-14.158h-2.263v14.158h-17.096v71.586l-84.971-0.393v44.185h-72.044V680.613h-213.44v292.602
			h-65.183V814.991h-213.44v1023.63l1458.504-5.514L2701.244,835.294z"/>
		<polygon style="fill:#DFEBFA;" points="1255.571,1001.381 1255.571,1097.322 1255.571,1240.046 1255.571,1831.635 
			1148.373,1831.635 1148.373,1240.046 1148.373,1097.322 1148.373,1001.381 		"/>
		<rect x="2256.165" y="825.595" style="fill:#DFEBFA;" width="3.933" height="57.366"/>
		<rect x="2322.43" y="776.331" style="fill:#DFEBFA;" width="6.116" height="111.095"/>
		<rect x="1548.163" y="660.157" style="fill:#DFEBFA;" width="2.549" height="20.456"/>
		<rect x="1602.193" y="660.157" style="fill:#DFEBFA;" width="2.549" height="20.456"/>
		<rect x="1726.056" y="660.157" style="fill:#DFEBFA;" width="2.549" height="20.456"/>
		<rect x="2382.066" y="659.028" style="fill:#DFEBFA;" width="1.967" height="15.789"/>
		<rect x="2475.048" y="659.028" style="fill:#DFEBFA;" width="1.968" height="15.789"/>
		<rect x="1677.633" y="660.157" style="fill:#DFEBFA;" width="2.548" height="20.456"/>
		<rect x="1286.414" y="861.662" style="fill:#EEF6FF;" width="25.14" height="42.599"/>
		<rect x="1970.611" y="872.038" style="fill:#EEF6FF;" width="25.141" height="42.599"/>
		<rect x="1568.794" y="714.815" style="fill:#EEF6FF;" width="25.14" height="42.599"/>
		<rect x="1618.693" y="714.815" style="fill:#EEF6FF;" width="25.14" height="42.599"/>
		<rect x="2576.021" y="1044.818" style="fill:#EEF6FF;" width="25.14" height="42.599"/>
		<rect x="1298.983" y="1067.802" style="fill:#EEF6FF;" width="25.14" height="42.599"/>
	</g>
	<g>
		<path style="fill:#DFEBFA;" d="M2954.827,1116.905c-3.491-52.03-0.574-106.729,12.511-164.569
			c0.769-3.388,1.562-6.803,2.404-10.217c0-0.013,0-0.013,0.012-0.026c10.729-43.697,17.038-86.098,19.309-127.1h-139.871v1021.611
			l77.441,0.026c2.6-1.884,5.163-3.755,7.678-5.639c10.753-8.032,20.748-16.079,29.987-24.15
			c45.672-39.877,73.243-80.093,88-121.291c0.366-1.008,0.72-2.028,1.073-3.048c7.958-23.235,11.9-46.771,12.755-70.727
			c0.073-1.949,0.122-3.885,0.158-5.848c0.013-0.929,0.024-1.857,0.024-2.787
			C3067.164,1463.024,2967.691,1308.149,2954.827,1116.905z"/>
		<polygon style="fill:#DFEBFA;" points="2849.383,1001.381 2849.383,1097.322 2849.383,1240.046 2849.383,1831.635 
			2750.189,1831.635 2750.189,1240.046 2750.189,1097.322 2750.189,1001.381 		"/>
		<rect x="2877.922" y="861.662" style="fill:#EEF6FF;" width="23.264" height="42.599"/>
		<path style="fill:#EEF6FF;" d="M2969.754,942.092c-0.012,0.013-0.012,0.013-0.012,0.026c-0.843,3.414-1.636,6.829-2.404,10.217
			v-10.244H2969.754z"/>
		<rect x="2889.554" y="1067.802" style="fill:#EEF6FF;" width="23.263" height="42.599"/>
	</g>
	<g>
		<path style="fill:#DFEBFA;" d="M1137.959,856.217h-53.47V715.445c-0.811-0.575-1.635-1.125-2.446-1.688h-15.935v-0.065h-92.705
			v0.065h-0.092v21.116h0.092v14.509h-0.092v21.103h0.092v14.561h-0.092v21.102h0.092v0.066l-9.825-0.066V695.756H859.557v13.973
			h-0.052v21.103h0.052v18.551h-0.052v21.103h0.052v14.561h-0.052v21.102h0.052v13.462h-0.052v21.129h0.052v13.462h-0.052v21.103
			h0.052v12.703h-0.052v13.397h0.052v1.465H742.309v120.78h-43.801v30.418h-47.216v-52.396h-84.973V859.317h-13.292v-14.182h-1.897
			v14.182h-11.029v-0.013h-55.105v-14.169h-1.897v14.169h-14.352v71.576l-71.367-0.379v44.168h-60.508v-273.13h-66.552
			c-90.402,124.078-121.107,323.996-122.049,516.418c-0.026,5.639-0.026,11.277-0.013,16.902
			c0.667,162.424,22.031,317.729,45.934,415.367c23.183,94.706,47.517,162.697,54.215,180.765c1.178,3.153,1.806,4.788,1.806,4.788
			l898.162,0.328v-0.04L1137.959,856.217z"/>
		<rect x="764.14" y="846.528" style="fill:#DFEBFA;" width="3.302" height="57.366"/>
		<rect x="819.792" y="797.264" style="fill:#DFEBFA;" width="5.137" height="111.095"/>
		<rect x="318.913" y="681.089" style="fill:#DFEBFA;" width="2.141" height="20.456"/>
		<rect x="869.88" y="679.96" style="fill:#DFEBFA;" width="1.652" height="15.788"/>
		<rect x="947.974" y="679.96" style="fill:#DFEBFA;" width="1.652" height="15.788"/>
		<path style="fill:#DFEBFA;" d="M280.38,688.22v13.332h-2.133v-10.584C278.954,690.039,279.661,689.136,280.38,688.22z"/>
		<rect x="278.243" y="727.34" style="fill:#EEF6FF;" width="21.114" height="42.599"/>
		<rect x="345.639" y="1073.452" style="fill:#EEF6FF;" width="21.114" height="42.599"/>
		<rect x="463.272" y="1198.167" style="fill:#EEF6FF;" width="21.114" height="42.599"/>
		<rect x="206.467" y="991.877" style="fill:#EEF6FF;" width="21.115" height="42.599"/>
		<rect x="880.58" y="716.684" style="fill:#EEF6FF;" width="21.114" height="42.598"/>
		<rect x="795.638" y="1073.452" style="fill:#EEF6FF;" width="21.114" height="42.599"/>
		<rect x="967.995" y="1155.568" style="fill:#EEF6FF;" width="21.114" height="42.599"/>
	</g>
	<path style="fill:#D1E3FB;" d="M1172.421,392.64v1442.014h-50.456V386.321C1140.871,388.336,1157.8,390.534,1172.421,392.64z"/>
	<path style="fill:#D1E3FB;" d="M2749.927,303.036v1531.619h-50.443V265.606c3.795,2.59,7.566,5.22,11.313,7.875
		C2724.211,282.98,2737.258,292.831,2749.927,303.036z"/>
	<g>
		<g>
			<polygon style="fill:#2B478B;" points="1481.338,1810.083 1450.034,1810.083 1441.251,1411.74 1489.072,1411.74 			"/>
			<polygon style="fill:#2B478B;" points="1617.384,1810.083 1312.939,1810.083 1312.939,1782.585 1468.107,1768.591 
				1617.384,1782.585 			"/>
			<path style="fill:#2B478B;" d="M1283.363,1805.768c0-13.831,11.212-25.043,25.043-25.043c13.831,0,25.043,11.212,25.043,25.043
				c0,13.83-11.212,25.043-25.043,25.043C1294.575,1830.811,1283.363,1819.598,1283.363,1805.768z"/>
			<path style="fill:#2B478B;" d="M1587.808,1805.768c0-13.831,11.212-25.043,25.043-25.043c13.83,0,25.043,11.212,25.043,25.043
				c0,13.83-11.213,25.043-25.043,25.043C1599.021,1830.811,1587.808,1819.598,1587.808,1805.768z"/>
			<path style="fill:#2B478B;" d="M1606.473,1437.875h-282.622c-14.434,0-26.134-11.701-26.134-26.135l0,0h334.89l0,0
				C1632.606,1426.174,1620.906,1437.875,1606.473,1437.875z"/>
		</g>
		<path style="fill:#F99746;" d="M1253.623,1411.74c-24.002,0-43.459-19.457-43.459-43.459v-347.177
			c0-68.735,44.939-124.457,100.374-124.457h226.982c55.435,0,100.375,55.722,100.375,124.457v390.636H1253.623z"/>
		<path style="fill:#ED7D2B;" d="M1258.108,1411.74c-13.161,0-23.83-10.669-23.83-23.829v-366.807
			c0-68.735,44.939-124.457,100.374-124.457h226.982c55.436,0,100.374,55.722,100.374,124.457v390.636H1258.108z"/>
		<path style="fill:#F99746;" d="M1784.141,1411.74h-547.394c-15.209,0-27.538-12.329-27.538-27.538l0,0
			c0-15.209,12.329-27.538,27.538-27.538h547.394c15.209,0,27.539,12.329,27.539,27.538l0,0
			C1811.68,1399.411,1799.35,1411.74,1784.141,1411.74z"/>
	</g>
	<path style="fill:#F8FCFF;" d="M1786.181,306.712c0,0,23.65-39.759,80.205-35.341c0,0,82.107-66.268,169.665-8.835
		c0,0,93.073-14.23,162,12.321c45.956,17.703,61.136,36.273,61.136,36.273L1786.181,306.712z"/>
	<path style="fill:#F8FCFF;" d="M2137.982,415.804c0,0,13.736-24.243,46.584-21.549c0,0,47.689-40.406,98.543-5.387
		c0,0,54.058-8.677,94.091,7.513c26.692,10.794,35.508,22.117,35.508,22.117L2137.982,415.804z"/>
	<path style="fill:#F8FCFF;" d="M1261.345,591.496c0,0,18.555-32.746,62.924-29.108c0,0,64.417-54.579,133.109-7.277
		c0,0,73.02-11.721,127.096,10.148c36.055,14.581,47.963,29.876,47.963,29.876L1261.345,591.496z"/>
	<g>
		<path style="fill:#233862;" d="M2374.939,1831.164c0,0,0-21.463,3.059-28.6c3.059-7.138,14.274-36.195,14.274-36.195h43.842
			c0,0,8.156,26.509,8.666,35.176c0.51,8.666,0,29.619,0,29.619H2374.939z"/>
		<path style="fill:#233862;" d="M2653.303,1831.164c0,0,0-21.463-3.059-28.6c-3.059-7.138-14.273-36.195-14.273-36.195h-43.842
			c0,0-8.156,26.509-8.666,35.176c-0.511,8.666,0,29.619,0,29.619H2653.303z"/>
		<path style="fill:#FFB27D;" d="M2477.662,626.487c0,0-1.545,47.792-7.662,69.204l-48.415,33.773l182.249,27.273l-43.465-60.053
			c0,0-13.121-64.08-6.239-87.786C2561.012,585.195,2477.662,626.487,2477.662,626.487z"/>
		<path style="fill:#ED985F;" d="M2477.397,633.087c0.001-0.014,14.411,34.693,41.557,33.929
			c27.146-0.765,33.325-31.462,33.325-31.462L2477.397,633.087z"/>
		<path style="fill:#2C3A64;" d="M2461.193,604.998c0,0-8.766-43.763-14.884-57.017c-6.117-13.254-11.216-72.39,56.587-75.449
			c0,0,25.998,3.059,40.272-5.607c0,0,0,8.667-3.568,11.725c0,0,23.45-5.608,41.803,14.784s-12.231,91.762-10.704,108.585
			L2461.193,604.998z"/>
		<path style="fill:#FFB27D;" d="M2515.844,653.609c-19.67-0.347-55.873-26.537-55.873-58.972v-50.612
			c0-11.844,8.259-21.534,18.352-21.534h75.043c10.094,0,18.352,9.69,18.352,21.534v47.748
			C2571.717,625.783,2538.402,654.007,2515.844,653.609z"/>
		<path style="fill:#2C3A64;" d="M2459.971,571.048c0,0,0.104-30.41,24.19-35.086c24.088-4.677,77.997,14.823,85.645-7.353
			c7.646-22.176-104.203-21.793-109.835-7.647C2454.339,535.108,2459.971,571.048,2459.971,571.048z"/>
		<path style="fill:#2B478B;" d="M2380.435,1087.864c0,0,7.671,234.23-3.799,367.876s0.083,319.639,0.083,319.639
			s36.683,20.226,76.445,0c0,0,43.608-258.191,43.332-319.639c-0.294-65.439,47.464-357.665,47.464-357.665L2380.435,1087.864z"/>
		<path style="fill:#2B478B;" d="M2651.718,1775.372c0,0-36.674,20.233-76.437,0c0,0-43.603-258.187-43.327-319.636
			c0.122-27.636-8.319-95.738-18.123-165.171c-13.413-94.988-29.349-192.485-29.349-192.485l169.866-10.613
			c0,0-14.009,234.634-2.539,368.27C2663.28,1589.387,2651.718,1775.372,2651.718,1775.372z"/>
		<path style="fill:#9FC1F4;" d="M2652.314,1126.832c0,0-72.415,14.024-138.483,14.024c-28.813,0-60.119-3.166-85.048-6.5
			c-27.559-3.655-47.318-7.524-47.318-7.524s-14.682,1.285-6.011-71.1c6.592-55.088,4.527-104.822,3.06-155.995
			c-0.168-5.689-0.046-12.419,0.306-19.912c2.813-59.661,20.86-167.067,34.609-172.833c0,0,20.447-7.601,56.571-11.302
			c0,0.704,20.967,31.352,45.85,34.793c15.462-6.118,27.605-11.333,44.52-33.799c21.427,2.493,44.795,6.744,69.785,13.458
			c0,0,2.6,11.378,12.418,208.788C2646.473,997.127,2673.159,1127.092,2652.314,1126.832z"/>
		<path style="fill:#233862;" d="M2531.954,1455.736c0.122-27.636-8.319-95.738-18.123-165.171
			c10.17-41.477,34.946-81.393,34.946-81.393C2580.129,1297.111,2531.954,1455.736,2531.954,1455.736z"/>
		<path style="fill:#9FC1F4;" d="M2311.588,941.979c-1.728,1.438,4.298,16.364,13.168,35.818
			c18.261,39.962,48.588,98.98,48.588,98.98c-4.389,16.655-9.206,26.947-9.206,26.947c-51.02-40.085-83.916-74.189-104.915-100.341
			c-29.516-36.781-35.572-57.871-35.572-57.871c113.601-231.239,193.549-239.763,193.549-239.763l-9.444,152.819
			C2407.755,858.567,2316.85,937.604,2311.588,941.979z"/>
		<path style="fill:#FFB27D;" d="M2367.293,1079.688c0,0,27.528-25.489,38.744-11.216c11.215,14.274,13.254,36.705,4.588,35.176
			c-8.667-1.529-26.509-9.687-29.058-5.608c-2.55,4.079-13.97,11.874-17.436,5.683
			C2360.666,1097.529,2367.293,1079.688,2367.293,1079.688z"/>
		<path style="fill:#FFB27D;" d="M2373.344,1076.776c-4.389,16.655-9.206,26.947-9.206,26.947
			c-51.02-40.085-83.916-74.189-104.915-100.341c15.83-1.178,38.938-6.836,65.533-25.586
			C2343.017,1017.759,2373.344,1076.776,2373.344,1076.776z"/>
		<path style="fill:#9FC1F4;" d="M2812.102,945.512c0,0-6.057,21.09-35.572,57.871c-20.998,26.151-53.896,60.256-104.914,100.341
			c0,0-4.818-10.292-9.207-26.947c0,0,30.327-59.018,48.588-98.98c8.87-19.454,14.896-34.38,13.168-35.818
			c-4.084-3.395-59.615-51.647-84.391-73.164c-7.188-6.255-11.775-10.247-11.775-10.247l-5.674-150.55
			C2622.324,708.018,2698.501,714.273,2812.102,945.512z"/>
		<path style="fill:#FFB27D;" d="M2668.454,1079.688c0,0-27.528-25.489-38.744-11.216c-11.216,14.274-13.255,36.705-4.588,35.176
			c8.666-1.529,26.509-9.687,29.058-5.608c2.549,4.079,13.969,11.874,17.436,5.683
			C2675.081,1097.529,2668.454,1079.688,2668.454,1079.688z"/>
		<path style="fill:#FFB27D;" d="M2662.402,1076.776c4.39,16.655,9.207,26.947,9.207,26.947
			c51.02-40.085,83.916-74.189,104.914-100.341c-15.829-1.178-38.938-6.836-65.533-25.586
			C2692.73,1017.759,2662.402,1076.776,2662.402,1076.776z"/>
		<path style="fill:#ED7D2B;" d="M2472.538,684.038c0,0-8.093,3.372-10.387,12.547c0,0,32.458,33.39,53.698,33.899L2472.538,684.038
			z"/>
		<path style="fill:#ED7D2B;" d="M2515.85,730.484l41.896-48.134c0,0,8.649,5.692,8.525,15.06
			C2566.271,697.411,2533.863,731.758,2515.85,730.484z"/>
		<path style="fill:#F99746;" d="M2508.295,726.941c0,0-31.979,276.053-20.842,309.701c5.733,17.322,13.406,32.305,19.503,42.766
			c4.386,7.526,15.27,7.506,19.617-0.042c8.493-14.742,19.589-36.077,19.589-46.905c0-17.539-24.264-305.758-24.264-305.758
			L2508.295,726.941z"/>
		<path style="fill:#ED7D2B;" d="M2499.927,713.409c0,0,19.327-1.937,31.093-0.743c2.334,0.237,3.634,2.79,2.496,4.84
			c-3.298,5.937-10.028,16.228-17.063,16.228C2506.566,733.733,2491.16,714.091,2499.927,713.409z"/>
		<path style="fill:#FFFFFF;" d="M2500.174,621.009c0,0,6.127,8.287,16.826,7.991s15.731-7.991,15.731-7.991
			S2514.676,618.049,2500.174,621.009z"/>
	</g>
	<g>
		<polygon style="fill:#416299;" points="2110.653,1170.301 1746.748,1170.917 1800.335,930.818 2164.24,930.202 		"/>
		<polygon style="fill:#233862;" points="2122.161,1170.588 1758.256,1171.204 1811.827,930.799 2175.732,930.182 		"/>
		<polygon style="fill:#112544;" points="1960.885,1230.449 1885.293,1231.141 1937.623,1071.621 2013.216,1070.93 		"/>
		<rect x="1838.61" y="1223.536" style="fill:#112544;" width="165.091" height="7.604"/>
	</g>
	<g>
		<g>
			<polygon style="fill:#FFFFFF;" points="1728.821,1230.355 1415.335,1230.355 1405.563,1158.456 1719.049,1158.456 			"/>
			<g>
				<path style="fill:#9FC1F4;" d="M1467.278,1206.441l5.572-29.486h7.196l-8.442,37.694h-6.343l-18.637-37.694h7.171
					L1467.278,1206.441z"/>
				<path style="fill:#9FC1F4;" d="M1512.683,1205.872h-14.601l-1.863,8.777h-6.809l9.116-37.694h5.876l19.388,37.694h-6.835
					L1512.683,1205.872z M1499.202,1200.592h10.925l-7.589-15.639L1499.202,1200.592z"/>
				<path style="fill:#9FC1F4;" d="M1559.917,1202.379c0.078,1.846-0.122,3.551-0.6,5.111c-0.478,1.563-1.252,2.914-2.322,4.053
					c-1.072,1.14-2.447,2.028-4.13,2.666c-1.683,0.639-3.68,0.959-5.993,0.959s-4.462-0.42-6.448-1.256
					c-1.988-0.839-3.745-2.029-5.276-3.573c-1.529-1.545-2.797-3.414-3.803-5.606c-1.005-2.189-1.693-4.65-2.064-7.377l-0.416-3.055
					c-0.368-2.709-0.339-5.166,0.086-7.366c0.426-2.2,1.207-4.077,2.342-5.63s2.599-2.754,4.391-3.6
					c1.792-0.844,3.87-1.269,6.234-1.269c2.243,0,4.272,0.324,6.087,0.972c1.814,0.647,3.397,1.545,4.754,2.691
					c1.356,1.149,2.482,2.517,3.379,4.104c0.898,1.588,1.569,3.323,2.015,5.204h-6.524c-0.3-1.19-0.682-2.263-1.148-3.211
					c-0.465-0.948-1.054-1.756-1.767-2.422c-0.711-0.664-1.565-1.168-2.561-1.514c-0.996-0.345-2.167-0.517-3.514-0.517
					c-1.484,0-2.744,0.28-3.782,0.84c-1.037,0.562-1.855,1.373-2.452,2.435c-0.598,1.061-0.977,2.368-1.137,3.921
					c-0.16,1.556-0.104,3.323,0.165,5.309l0.422,3.106c0.256,1.881,0.652,3.589,1.189,5.126c0.537,1.536,1.224,2.852,2.064,3.948
					c0.839,1.096,1.844,1.946,3.013,2.551c1.17,0.604,2.513,0.905,4.032,0.905c1.415,0,2.588-0.164,3.519-0.491
					c0.931-0.328,1.672-0.812,2.223-1.451c0.552-0.637,0.942-1.424,1.169-2.356c0.227-0.932,0.335-2.001,0.327-3.208H1559.917z"/>
				<path style="fill:#9FC1F4;" d="M1592.643,1205.872h-14.601l-1.863,8.777h-6.808l9.116-37.694h5.876l19.388,37.694h-6.835
					L1592.643,1205.872z M1579.162,1200.592h10.925l-7.589-15.639L1579.162,1200.592z"/>
				<path style="fill:#9FC1F4;" d="M1643.228,1214.649h-6.55l-20.438-26.743l3.635,26.743h-6.55l-5.123-37.694h6.55l20.502,26.846
					l-3.648-26.846h6.499L1643.228,1214.649z"/>
				<path style="fill:#9FC1F4;" d="M1678.35,1182.237h-11.754l4.405,32.412h-6.497l-4.406-32.412h-11.65l-0.718-5.282h29.902
					L1678.35,1182.237z"/>
			</g>
		</g>
		<polygon style="fill:#9FC1F4;" points="1376.687,1230.084 1405.563,1158.456 1415.335,1230.355 		"/>
	</g>
	<g>
		<g>
			<g>
				<g>
					<polygon style="fill:#233862;" points="1060.966,1215.059 1067.779,1215.059 1067.779,1097.749 998.081,919.903 
						1122.526,823.47 1118.355,818.084 989.877,917.641 1060.966,1099.036 					"/>
				</g>
				<path style="fill:#233862;" d="M1136.591,835.757L1136.591,835.757c3.131-2.22,3.87-6.558,1.65-9.688l-10.365-14.62
					c-2.22-3.131-6.558-3.869-9.688-1.649l0,0c-3.131,2.22-3.87,6.558-1.65,9.688l10.366,14.62
					C1129.123,837.238,1133.46,837.977,1136.591,835.757z"/>
				<path style="fill:#233862;" d="M1004.551,917.857c0-4.982-4.039-9.021-9.02-9.021c-4.982,0-9.021,4.039-9.021,9.021
					c0,4.982,4.039,9.02,9.021,9.02C1000.513,926.877,1004.551,922.839,1004.551,917.857z"/>
			</g>
			<g>
				<path style="fill:#233862;" d="M1031.297,1231.193h68.552v-6.922c0-6.955-5.638-12.593-12.592-12.593h-42.861
					c-7.234,0-13.099,5.864-13.099,13.099V1231.193z"/>
				
					<rect x="1057.209" y="1106.057" transform="matrix(-1 -1.224647e-16 1.224647e-16 -1 2128.8149 2321.1152)" style="fill:#233862;" width="14.396" height="109.002"/>
			</g>
		</g>
		<g>
			<path style="fill:#F99746;" d="M1121.163,936.932c0.325,0.363,0.65,0.727,0.984,1.066l0.07,0.078
				c0.317,0.355,0.635,0.693,0.962,1.024c9.309,8.076,40.16-6.399,70.008-33.091c29.839-26.684,47.667-55.741,40.677-65.891
				c-0.292-0.361-0.593-0.715-0.911-1.07l-0.069-0.078c-0.3-0.371-0.625-0.734-0.95-1.098
				c-27.357-30.592-74.332-33.206-104.916-5.856C1096.427,859.373,1093.805,906.339,1121.163,936.932z"/>
			<path style="fill:#F9DDBF;" d="M1122.145,938.005l0.067,0.068c0.103,0.136,0.205,0.255,0.307,0.374
				c0.204,0.238,0.426,0.443,0.664,0.648c9.299,8.073,40.161-6.387,70-33.093c29.839-26.671,47.671-55.727,40.688-65.878
				c-0.187-0.256-0.375-0.511-0.579-0.732c-0.103-0.119-0.205-0.238-0.341-0.341l-0.068-0.085
				c-6.335-5.995-23.538-0.648-43.635,12.365c-8.55,5.535-17.628,12.467-26.621,20.506c-7.051,6.318-13.438,12.756-18.99,19.041
				C1125.534,911.436,1116.404,930.41,1122.145,938.005z"/>
			<path style="fill:#FFEFE1;" d="M1143.638,890.879c5.263,4.343,12.024,6.932,19.399,6.932c16.913,0,30.623-13.711,30.623-30.623
				c0-5.808-1.618-11.241-4.411-15.857c-8.55,5.535-17.628,12.467-26.621,20.506C1155.577,878.156,1149.19,884.594,1143.638,890.879
				z"/>
		</g>
	</g>
	<g style="opacity:0.7;">
		<g>
			<path style="fill:#77A4E5;" d="M2028.657,1619.432c0,0-37.663-43.94-2.322-71.851c0,0,25.815-15.628,46.864-14.359
				c0,0-29.826,50.015-20.177,54.989c9.648,4.975,29.216-58.127,29.216-58.127s58.746-5.696,77.644,3.39
				c0,0-50.22,41.097-39.644,43.543c10.577,2.446,64.822-37.891,64.822-37.891s54.675,9.305,51.76,42.658
				c-2.916,33.354-21.755,43.653-30.035,42.767c-8.28-0.888-56.717-19.377-57.771-12.593c-1.056,6.784,28.101,28.957,48.518,29.994
				c0,0-38.548,42.511-64.166,30.242c-25.619-12.269-27.806-31.717-43.775-39.011s-29.603-7.276-23.009,0.163
				c6.593,7.439,35.495,14.669,44.628,30.823c9.133,16.155,17.326,27.05-9.179,23.062c-26.506-3.988-69.591-23.383-71.481-45.591
				C2028.657,1619.432,2028.657,1619.432,2028.657,1619.432z"/>
			<g>
				<path style="fill:#77A4E5;" d="M2209.955,1582.685c0,0-148.502-5.724-181.298,36.747c0,0-7.253,21.722-29.571,41.502
					l-3.479,9.48c0,0,25.733-27.133,34.941-28.773C2030.549,1641.641,2016.148,1589.024,2209.955,1582.685z"/>
				<path style="fill:#77A4E5;" d="M1999.086,1660.934c0,0-31.875,23.573-34.089,65.692l5.785,0.519
					c0,0,10.181-43.552,28.581-60.583S1999.086,1660.934,1999.086,1660.934z"/>
			</g>
		</g>
		<g>
			<path style="fill:#77A4E5;" d="M1912.519,1583.479c0,0,52.815-29.576,28.168-69.716c0,0-19.718-24.647-40.844-30.984
				c0,0,11.268,59.856,0,61.266c-11.267,1.408-7.746-67.604-7.746-67.604s-55.632-26.76-77.462-24.647
				c0,0,34.506,58.448,23.238,57.04c-11.267-1.408-49.998-60.562-49.998-60.562s-57.041-10.563-66.195,23.239
				s5.634,50.702,14.084,52.815c8.45,2.112,62.674,1.408,61.266,8.45s-38.027,18.31-58.449,11.972c0,0,22.535,55.632,52.111,52.814
				c29.576-2.816,38.731-21.126,57.041-22.534c18.309-1.408,31.688,3.521,22.534,8.45c-9.154,4.93-40.14,1.616-54.928,14.188
				c-14.788,12.572-26.76,20.319,0.704,25.952c27.464,5.634,76.758,2.113,86.617-19.014
				C1912.519,1583.479,1912.519,1583.479,1912.519,1583.479z"/>
			<g>
				<path style="fill:#77A4E5;" d="M1747.735,1482.074c0,0,147.883,47.887,164.783,101.405c0,0-0.704,23.943,14.084,51.407v10.563
					c0,0-15.492-35.914-23.942-40.844C1902.66,1604.605,1935.758,1558.129,1747.735,1482.074z"/>
				<path style="fill:#77A4E5;" d="M1926.603,1634.887c0,0,22.807,34.632,9.805,76.789l-5.867-1.576c0,0,5.695-46.434-6.236-69.786
					C1912.371,1616.96,1926.603,1634.887,1926.603,1634.887z"/>
			</g>
		</g>
		<g>
			<path style="fill:#9FC1F4;" d="M1992.289,1517.9c0,0-78.977-44.228-42.121-104.25c0,0,29.485-36.855,61.076-46.333
				c0,0-16.849,89.507,0,91.613s11.583-101.09,11.583-101.09s83.188-40.016,115.833-36.856c0,0-51.599,87.401-34.75,85.295
				c16.848-2.105,74.765-90.56,74.765-90.56s85.295-15.796,98.984,34.749c13.689,50.546-8.424,75.818-21.061,78.978
				c-12.636,3.159-93.719,2.105-91.613,12.636c2.106,10.53,56.863,27.379,87.401,17.901c0,0-33.697,83.189-77.924,78.978
				c-44.228-4.212-57.916-31.591-85.295-33.697c-27.379-2.105-47.387,5.266-33.697,12.637s60.022,2.415,82.136,21.215
				c22.114,18.8,40.016,30.383-1.053,38.808c-41.067,8.424-114.779,3.159-129.522-28.432
				C1992.289,1517.9,1992.289,1517.9,1992.289,1517.9z"/>
			<g>
				<path style="fill:#9FC1F4;" d="M2238.697,1366.265c0,0-221.135,71.605-246.408,151.636c0,0,1.054,35.803-21.061,76.871v15.795
					c0,0,23.167-53.704,35.803-61.075C2007.031,1549.491,1957.539,1479.991,2238.697,1366.265z"/>
				<path style="fill:#9FC1F4;" d="M1971.229,1594.771c0,0-34.103,51.786-14.66,114.825l8.773-2.356c0,0-8.517-69.434,9.325-104.355
					C1992.51,1567.964,1971.229,1594.771,1971.229,1594.771z"/>
			</g>
		</g>
		<path style="fill:#9FC1F4;" d="M1994.197,1832.183c75.318,0,136.375-61.058,136.375-136.375h-272.75
			C1857.822,1771.125,1918.88,1832.183,1994.197,1832.183z"/>
		<path style="fill:#AFCDFB;" d="M2027.756,1831.139c-5.547,0.693-11.203,1.044-16.943,1.044
			c-75.316,0-136.369-61.06-136.369-136.376h33.88C1908.323,1765.389,1960.433,1822.795,2027.756,1831.139z"/>
		<rect x="1853.338" y="1695.807" style="fill:#77A4E5;" width="280.336" height="4.184"/>
		<path style="fill:#77A4E5;" d="M1935.957,1832.183h127.687l0,0c0-6.04-4.896-10.937-10.937-10.937h-105.813
			C1940.854,1821.246,1935.957,1826.143,1935.957,1832.183L1935.957,1832.183z"/>
	</g>
	<g>
		<g>
			<path style="fill:#2B478B;" d="M962.234,1838.876h-0.523c-3.083,0-5.562-4.041-5.491-8.95l8.327-574.855l24.528-4.558
				l-20.917,579.454C967.978,1834.968,965.379,1838.876,962.234,1838.876z"/>
		</g>
		<g>
			<path style="fill:#2B478B;" d="M2195.729,1838.876h0.523c3.082,0,5.562-4.041,5.49-8.95l-8.326-574.855l-24.528-4.558
				l20.916,579.454C2189.984,1834.968,2192.583,1838.876,2195.729,1838.876z"/>
		</g>
		<path style="fill:#2B478B;" d="M2248.594,1265.645H916.384c-8.372,0-15.159-6.787-15.159-15.158v-4.366
			c0-8.372,6.787-15.159,15.159-15.159h1332.209c8.371,0,15.158,6.787,15.158,15.159v4.366
			C2263.752,1258.857,2256.965,1265.645,2248.594,1265.645z"/>
	</g>
	<g>
		<path style="fill:#163560;" d="M537.745,835.379c-4.673-9.012,101.949-41.467,103.638,47.479c0,0,199.732-4.911,104.364-116.236
			c-33.016-38.54-29.618-70.406-28.629-100.068c1.004-29.668-20.564-115.885-94.493-107.203c0,0-19.361-7.878-43.522,4.657
			C524.154,592.513,401.064,868.181,537.745,835.379z"/>
		<path style="fill:#FFB27D;" d="M864.282,934.817c0,0,13-19.792,23.479-20.18c10.478-0.388,29.882-5.821,28.33-1.94
			c-1.552,3.881-13.583,4.269-14.747,6.597c-1.164,2.329,17.852,5.821,23.285,6.21c5.433,0.388,18.24,0,17.852,2.716
			c-0.388,2.717-23.082,13.971-39.094,12.419c-16.013-1.553-35.805,4.657-35.805,4.657L864.282,934.817z"/>
		<path style="fill:#9FC1F4;" d="M870.102,957.517c0,0-27.317,37.089-63.635,53.208c0,0-0.013,0-0.052,0.014
			c-12.834,5.704-26.807,8.778-41.093,6.672c-10.375-1.531-20.03-5.22-28.848-10.218c-16.589-9.354-30.247-23.261-40.334-35.899
			c-3.048-3.807-5.756-7.509-8.138-10.924c-7.64-11.003-11.748-19.153-11.748-19.153l9.236-158.041c0,0,33.061,7.667,42.768,22.411
			c9.708,14.758,50.447,132.137,57.434,135.63c6.986,3.493,80.342-13.004,80.342-13.004S876.512,940.051,870.102,957.517z"/>
		<path style="fill:#233862;" d="M402.612,1732.965c0,0-22.381,20.425-18.014,34.938c4.367,14.512,24.565,24.188,27.294,41.925
			s13.647,27.413,23.473,27.413c9.826,0,46.845,0,46.845,0s7.233-12.482-10.235-16.245c-17.468-3.763-24.054-24.605-22.962-43.956
			c1.092-19.35-1.638-45.149-1.638-45.149l-37.12-8.601L402.612,1732.965z"/>
		<path style="fill:#233862;" d="M592.044,1741.636c0,0-8.052,86.527,1.774,91.364l125.747-0.258c0,0,0-14.513-20.197-17.737
			c-20.198-3.225-55.68-15.05-61.684-41.388C631.68,1747.28,592.044,1741.636,592.044,1741.636z"/>
		<path style="fill:#80A3D8;" d="M736.474,1007.192c-16.589-9.354-30.247-23.261-40.334-35.899
			c-3.048-3.807-5.756-7.509-8.138-10.924c6.934-32.759,17.1-77.804,14.901-49.283C700.051,948.11,728.951,995.549,736.474,1007.192
			z"/>
		<path style="fill:#FFB27D;" d="M502.434,1120.871c25.876-58.031,41.711-74.688,38.688-92.7c-2.25-13.406,6.85-249.95,6.85-249.95
			c3.07-0.951,9.224-1.804,12.59-2.551c10.614-2.357,19.399-9.812,23.056-20.051c4.404-12.335,7.906-30.547,7.824-53.371
			l3.314,0.653l55.735,11.037c0,0-1.268,17.54-1.306,34.063c0,0.138,0,0.275-0.001,0.411c-0.068,14.351,9.347,27.017,23.134,30.997
			c7.04,2.032,13.165,3.769,13.165,3.769s20.466,58.429,24.375,118.454c3.909,60.025-37.215,86.102,0.31,206.052
			C748.48,1230.192,488.14,1152.938,502.434,1120.871z"/>
		<path style="fill:#E8945B;" d="M650.492,713.938c0,0-1.268,17.54-1.306,34.063c-31.188-0.879-47.674-29.33-54.429-45.1
			L650.492,713.938z"/>
		<path style="fill:#FFB27D;" d="M660.907,729.583c0,0-73.791,1.217-73.842-44.748c-0.051-45.965-9.609-76.765,37.503-79.485
			c47.111-2.721,56.285,14.809,60.033,30.147C688.35,650.835,680.101,728.082,660.907,729.583z"/>
		<path style="fill:#163560;" d="M658.176,604.224c0,0-20.204,53.926-51.211,61.9c-31.006,7.973-44.456-0.335-44.456-0.335
			s23.784-18.893,28.719-51.874C591.229,613.916,642.936,578.558,658.176,604.224z"/>
		<path style="fill:#163560;" d="M653.169,608.602c0,0,14.982,5.601,21.148,16.527c6.03,10.685,11.167,24.837,9.975,42.198
			c0,0,15.222-36.653-1.885-57.388C664.268,587.954,653.169,608.602,653.169,608.602z"/>
		<path style="fill:#EBF3FA;" d="M644.852,701.068c0,0,5.091,6.7,15.279,6.217c8.205-0.389,11.37-7.507,11.37-7.507
			S656.428,696.154,644.852,701.068z"/>
		<path style="fill:#9FC1F4;" d="M495.313,882.858c0,0-1.874,26.419,0,58.121c1.246,21.015,22.503,49.163,25.519,56.125
			c7.567,17.463,16.102,20.304,16.102,20.304l66.024,16.184l23.215,5.682l73.208-21.865c0,0,33.344-93.069,19.955-145.46
			c-13.389-52.391-33.845-88.773-33.845-88.773s-59.737,58.491-137.52-4.96L495.313,882.858z"/>
		<path style="fill:#F2CCAA;" d="M514.638,949.557c1.246,21.015,3.178,40.586,6.194,47.547
			c7.567,17.463,16.102,20.304,16.102,20.304l66.024,16.184l28.675-8.43c0,0-95.724-14.506-85.117-96.865L514.638,949.557z"/>
		<path style="fill:#233862;" d="M694.723,1031.535c0,0,36.253,112.846,38.582,151.266s-69.301,545.789-72.183,563.492
			c-2.716,16.688-23.438,27.324-23.438,27.324s-9.531,5.622-23.132,1.781c-18.872-5.328-24.837-11.709-24.837-11.709
			s-28.218-361.852-10.755-491.112c17.463-129.261,17.668-241.042,17.668-241.042H694.723z"/>
		<path style="fill:#2B478B;" d="M541.122,1028.171c0,0-55.302,74.2-60.457,124.359c-5.155,50.159-8.088,226.347-19.072,275.245
			c-10.983,48.897-51.339,142.999-51.339,295.514c0,0,4.194,8.741,17.146,13.398c4.142,1.489,9.691,2.934,15.079,4.169
			c10.681,2.449,21.64-2.771,26.515-12.586c27.283-54.933,114.19-232.103,118.646-268.879
			c3.153-26.026,30.594-198.278,90.45-299.354c14.37-24.266-8.819-120.765-8.819-120.765L541.122,1028.171z"/>
		<path style="fill:#FFFFFF;" d="M646.492,702.298c0,0,1.275,5.417,14.751,4.581c0,0,11.314-0.699,10.968-6.652
			C672.21,700.227,661.24,695.991,646.492,702.298z"/>
		<path style="fill:#233862;" d="M700.514,1014.115c0,0-14.555,11.513-43.467,12.095c-34.535,0.695-120.111-8.804-120.111-8.804
			s-3.802,10.623-3.647,21.841c0,0,104.517,26.363,165.073,3.85C698.362,1043.097,706.173,1028.401,700.514,1014.115z"/>
		<g>
			<path style="fill:#FFFFFF;" d="M649.574,1038.136c0-9.835,7.068-17.836,15.758-17.836c8.69,0,15.759,8.001,15.759,17.836
				s-7.07,17.835-15.759,17.835C656.643,1055.971,649.574,1047.971,649.574,1038.136z M654.797,1038.136
				c0,6.955,4.726,12.612,10.535,12.612c5.81,0,10.536-5.657,10.536-12.612s-4.727-12.612-10.536-12.612
				C659.523,1025.523,654.797,1031.181,654.797,1038.136z"/>
		</g>
		
			<rect x="470.786" y="910.685" transform="matrix(-0.7542 -0.6567 0.6567 -0.7542 288.5104 2123.7317)" style="fill:#ED7D2B;" width="141.985" height="194.355"/>
		<path style="fill:#FFB27D;" d="M561.088,1034.87c0,0,39.234,4.588,39.111,13.901c-0.122,9.313-9.777,28.445-14.622,29.297
			c-4.845,0.85-31.93-25.875-31.93-25.875L561.088,1034.87z"/>
		<path style="fill:#9FC1F4;" d="M547.97,778.215c0,0-52.381,3.672-72.46,52.483c-20.079,48.811-58.175,130.764-58.175,144.55
			c0,13.787,21.28,56.287,135.569,80.722c0,0,11.82-12.435,11.105-22.268c0,0-71.343-61.278-71.151-68.44
			c0.363-13.547,11.696-31.431,74.332-94.087C584.218,854.141,547.97,778.215,547.97,778.215z"/>
	</g>
	<path style="fill:#2E3552;" d="M3104.152,1840.124H110.813c-2.003,0-3.643-1.639-3.643-3.643v-1.852
		c0-2.003,1.639-3.643,3.643-3.643h2993.339c2.003,0,3.643,1.64,3.643,3.643v1.852
		C3107.795,1838.485,3106.155,1840.124,3104.152,1840.124z"/>
</g>
</svg>
